<?xml version="1.0" encoding="utf-8"?>
<!-- Generator: Adobe Illustrator 25.3.1, SVG Export Plug-In . SVG Version: 6.00 Build 0)  -->
<svg version="1.1" id="Layer_1" xmlns="http://www.w3.org/2000/svg" xmlns:xlink="http://www.w3.org/1999/xlink" x="0px" y="0px"
	 viewBox="0 0 512 512" style="enable-background:new 0 0 512 512;" xml:space="preserve">
<style type="text/css">
	.st0{fill:#264653;}
	.st1{fill:#2A9D8F;}
	.st2{fill:#E76F51;}
	.st3{fill:#F4A261;}
	.st4{fill:#E9C46A;}
</style>
<g>
	<path class="st0" d="M54,456.8c-3.1-0.3-7-1.2-10.2-4.3c-3.2-3.1-4.1-7-4.4-10.2c-0.4-3.1-0.3-6.3-0.3-10.3
		c0-17.8,7.2-34.5,17.6-51.1v-86.9H0.1v218h56.6V457C55.8,456.9,54.9,456.9,54,456.8z"/>
	<path class="st1" d="M472.1,245.6c-1,2.6-2.5,4.8-4.2,6.6c-2.8,3-6.1,5.3-9.8,7.5c-2.4,1.4-5,2.7-7.8,3.9v109.5
		c13.2,19.2,22.8,38.3,22.8,59c0,4,0,7.1-0.3,10.2c-0.3,3.1-1.2,7-4.3,10.1c-3.1,3.1-7,4-10.1,4.3c-2.5,0.3-5,0.3-8,0.3v55h61.8
		V245.6H472.1z"/>
	<path class="st1" d="M64.4,457.1c-2.9,0-5.4,0-7.7-0.1v55.1h98.4v-55H64.4z"/>
	<path class="st1" d="M155.1,152V52.8H56.7v155.6C66,200,78,192.1,91.7,184.3C110.7,173.4,133,162.7,155.1,152z"/>
	<path class="st1" d="M77,352.6c17.5-22.7,37.5-46.5,52.4-72.3c-15.1-1.5-32.4-4.9-47.9-9.6c-9.3-2.8-17.8-5.9-24.8-9.7v33V381
		C62.7,371.5,69.7,362.1,77,352.6z"/>
	<path class="st2" d="M257.3,362.4c-0.6-0.5-0.8-0.6-1.2-0.8c-0.4,0.2-0.6,0.3-1.2,0.8c-1.8,1.5-4.4,4.3-7.2,7.8
		c-5.5,6.9-11.8,16.7-17.6,26.5c-11.6,19.6-21.3,39.4-21.3,39.4l-0.1,0.2l-0.1,0.2c-4.3,8-6.6,13.4-12.7,17.3
		c-6.1,3.9-12,3.4-20.1,3.4h-20.8v55h107V367.3C260.3,365.2,258.6,363.5,257.3,362.4z"/>
	<path class="st2" d="M183.5,138.3c0.8-16.3,5-34.9,15-51c11.2-17.9,30.6-32.2,57.6-32.2c2,0,4,0.1,6,0.3V24.1h-107v28.7V152
		C164.7,147.4,174.2,142.8,183.5,138.3z"/>
	<path class="st0" d="M382.8,280.3c0.2,0.3,0.4,0.6,0.5,0.9v-1C383.2,280.2,383,280.3,382.8,280.3z"/>
	<path class="st0" d="M262.9,55.4c23.5,2.2,40.6,15.5,50.9,31.9c10,16,14.2,34.7,15,51c17.7,8.8,36.6,17.6,54.6,26.5V96.7h0.8V0.1
		h-122v24h0.8V55.4z"/>
	<path class="st0" d="M336.1,457.1c-8,0-13.9,0.5-20-3.5c-6.1-3.9-8.3-9.3-12.6-17.3l-0.1-0.2l-0.1-0.2c0,0-9.7-19.8-21.3-39.4
		c-5.8-9.8-12.1-19.6-17.6-26.5c-0.5-0.7-1-1.3-1.6-1.9v143.8h120.4v-55H336.1z"/>
	<path class="st0" d="M262.9,55.4V24.1h-0.8v31.3C262.4,55.4,262.7,55.4,262.9,55.4z"/>
	<path class="st0" d="M262.1,367.3v144.7h0.8V368.3C262.6,368,262.4,367.6,262.1,367.3z"/>
	<path class="st2" d="M420.6,184.3c11.3,6.4,21.4,12.9,29.8,19.7V96.7h-66.2v68.4C396.9,171.5,409.3,177.8,420.6,184.3z"/>
	<path class="st2" d="M384.1,280.1v2.4c14.8,25,34.1,48,51.1,70.1c5.3,6.9,10.4,13.7,15.1,20.5V263.6c-5.9,2.7-12.5,5-19.6,7.1
		C415.7,275.2,398.9,278.6,384.1,280.1z"/>
	<path class="st2" d="M448.1,457.1h-64v55h66.2v-55C449.6,457.1,448.9,457.1,448.1,457.1z"/>
	<path class="st2" d="M383.3,281.2c0.3,0.4,0.5,0.9,0.8,1.3v-2.4c-0.3,0-0.5,0.1-0.8,0.1V281.2z"/>
	<rect x="383.3" y="457.1" class="st2" width="0.8" height="55"/>
	<path class="st2" d="M383.3,164.7c0.3,0.1,0.5,0.3,0.8,0.4V96.7h-0.8V164.7z"/>
	<path class="st2" d="M55.5,209.5c-9.4,8.8-16.3,18.8-16.3,30.6c0,5,2.4,9.1,5.2,12.1c2.8,3,6.1,5.3,9.8,7.5c0.8,0.5,1.7,1,2.6,1.4
		v-52.7C56.3,208.8,55.9,209.1,55.5,209.5z"/>
	<path class="st2" d="M472.1,245.6c0.6-1.7,1-3.5,1-5.5c0-11.8-6.9-21.7-16.3-30.6c-2-1.9-4.2-3.8-6.4-5.6v41.6H472.1z"/>
	<path class="st1" d="M39.1,432.1c0,4,0,7.1,0.3,10.3c0.4,3.1,1.3,7.1,4.4,10.2c3.2,3.1,7,3.9,10.2,4.3c0.9,0.1,1.8,0.2,2.7,0.2v-76
		C46.3,397.5,39.1,414.2,39.1,432.1z"/>
	<path class="st3" d="M458.4,456.8c3.1-0.3,7-1.2,10.1-4.3c3.1-3.1,4-7,4.3-10.1c0.3-3.1,0.3-6.2,0.3-10.2c0-20.7-9.6-39.8-22.8-59
		v84C453.3,457.1,455.9,457.1,458.4,456.8z"/>
	<path class="st3" d="M450.3,263.6c2.8-1.2,5.4-2.5,7.8-3.9c3.8-2.2,7.1-4.5,9.8-7.5c1.7-1.8,3.2-4,4.2-6.6h-21.8V263.6z"/>
	<path class="st3" d="M129.4,280.3c-15,25.8-35,49.6-52.4,72.3c-7.3,9.5-14.3,18.9-20.3,28.4v76c2.3,0.1,4.8,0.1,7.7,0.1h90.7V152
		c-22.1,10.6-44.4,21.4-63.5,32.3C78,192.1,66,200,56.7,208.4v52.7c7.1,3.7,15.6,6.9,24.8,9.7C97,275.4,114.4,278.8,129.4,280.3z"/>
	<path class="st4" d="M256.1,55.1c-27,0-46.4,14.3-57.6,32.2c-10,16-14.2,34.7-15,51c-9.2,4.6-18.8,9.1-28.3,13.7v305.1h20.8
		c8.1,0,14,0.5,20.1-3.4c6.1-3.9,8.3-9.3,12.7-17.3l0.1-0.2l0.1-0.2c0,0,9.7-19.8,21.3-39.4c5.8-9.8,12.1-19.6,17.6-26.5
		c2.7-3.5,5.3-6.2,7.2-7.8c0.6-0.5,0.8-0.6,1.2-0.8c0.4,0.2,0.6,0.3,1.2,0.8c1.3,1.1,3,2.8,4.8,4.9v-312
		C260.2,55.2,258.2,55.1,256.1,55.1z"/>
	<path class="st1" d="M382.8,280.3c0.2,0,0.4,0,0.5-0.1V164.7c-18-8.9-36.8-17.7-54.6-26.5c-0.8-16.3-5-34.9-15-51
		c-10.3-16.4-27.4-29.7-50.9-31.9v312.9c0.5,0.6,1,1.2,1.6,1.9c5.5,6.9,11.8,16.7,17.6,26.5c11.6,19.6,21.3,39.4,21.3,39.4l0.1,0.2
		l0.1,0.2c4.3,8,6.5,13.3,12.6,17.3c6.1,3.9,12,3.5,20,3.5h47.3V281.2C383.2,280.9,383,280.6,382.8,280.3z"/>
	<path class="st3" d="M262.1,55.3v312c0.3,0.3,0.5,0.6,0.8,0.9V55.4C262.7,55.4,262.4,55.4,262.1,55.3z"/>
	<path class="st4" d="M384.1,165.1v115c14.8-1.5,31.5-4.9,46.6-9.4c7.1-2.1,13.7-4.5,19.6-7.1v-18v-41.6
		c-8.4-6.8-18.5-13.2-29.8-19.7C409.3,177.8,396.9,171.5,384.1,165.1z"/>
	<path class="st4" d="M384.1,282.5v174.6h64c0.8,0,1.5,0,2.2,0v-84c-4.7-6.8-9.8-13.6-15.1-20.5C418.3,330.5,399,307.5,384.1,282.5z
		"/>
	<path class="st3" d="M383.3,281.2v175.9h0.8V282.5C383.9,282,383.6,281.6,383.3,281.2z"/>
	<path class="st3" d="M384.1,280.1v-115c-0.3-0.1-0.5-0.3-0.8-0.4v115.5C383.6,280.2,383.9,280.2,384.1,280.1z"/>
</g>
</svg>
